<svg xmlns="http://www.w3.org/2000/svg" xmlns:xlink="http://www.w3.org/1999/xlink" width="2000" zoomAndPan="magnify" viewBox="0 0 1500 1499.999933" height="2000" preserveAspectRatio="xMidYMid meet" version="1.0"><defs><g/><clipPath id="2a216014ae"><rect x="0" width="1161" y="0" height="398"/></clipPath><clipPath id="58aff1c6aa"><rect x="0" width="309" y="0" height="655"/></clipPath></defs><g transform="matrix(1, 0, 0, 1, 327, 551)"><g clip-path="url(#2a216014ae)"><g fill="#577f49" fill-opacity="1"><g transform="translate(0.913804, 317.771508)"><g><path d="M 107.640625 -169.5625 C 121.398438 -169.5625 132.410156 -166.4375 140.671875 -160.1875 C 148.929688 -153.945312 154.859375 -145.429688 158.453125 -134.640625 C 161.421875 -139.929688 165.757812 -145.273438 171.46875 -150.671875 C 177.1875 -156.066406 183.851562 -160.5625 191.46875 -164.15625 C 199.09375 -167.757812 207.25 -169.5625 215.9375 -169.5625 C 230.332031 -169.5625 241.550781 -166.4375 249.59375 -160.1875 C 257.632812 -153.945312 263.296875 -145.585938 266.578125 -135.109375 C 269.859375 -124.628906 271.5 -112.9375 271.5 -100.03125 L 271.5 0 L 238.484375 0 L 238.484375 -98.125 C 238.484375 -110.40625 236.148438 -120.351562 231.484375 -127.96875 C 226.828125 -135.59375 218.046875 -139.40625 205.140625 -139.40625 C 192.859375 -139.40625 182.75 -135.539062 174.8125 -127.8125 C 166.875 -120.082031 162.90625 -110.710938 162.90625 -99.703125 L 162.90625 0 L 129.875 0 L 129.875 -98.75 C 129.875 -110.613281 127.332031 -120.351562 122.25 -127.96875 C 117.175781 -135.59375 108.816406 -139.40625 97.171875 -139.40625 C 89.128906 -139.40625 81.929688 -137.601562 75.578125 -134 C 69.222656 -130.40625 64.242188 -125.695312 60.640625 -119.875 C 57.046875 -114.050781 55.25 -107.539062 55.25 -100.34375 L 55.25 0 L 22.234375 0 L 22.234375 -166.71875 L 55.25 -166.71875 L 55.25 -140.03125 C 60.332031 -147.65625 67.476562 -154.484375 76.6875 -160.515625 C 85.894531 -166.546875 96.210938 -169.5625 107.640625 -169.5625 Z M 107.640625 -169.5625 "/></g></g></g><g fill="#577f49" fill-opacity="1"><g transform="translate(274.958539, 317.771508)"><g><path d="M 178.140625 -166.71875 L 178.140625 0 L 145.125 0 L 145.125 -25.71875 C 140.039062 -18.738281 132.519531 -12.175781 122.5625 -6.03125 C 112.613281 0.101562 101.078125 3.171875 87.953125 3.171875 C 73.984375 3.171875 61.226562 -0.53125 49.6875 -7.9375 C 38.15625 -15.34375 29 -25.609375 22.21875 -38.734375 C 15.445312 -51.859375 12.0625 -66.890625 12.0625 -83.828125 C 12.0625 -100.765625 15.554688 -115.742188 22.546875 -128.765625 C 29.535156 -141.785156 39.164062 -151.945312 51.4375 -159.25 C 63.71875 -166.550781 77.691406 -170.203125 93.359375 -170.203125 C 105.003906 -170.203125 115.21875 -167.660156 124 -162.578125 C 132.789062 -157.503906 139.832031 -151.578125 145.125 -144.796875 L 145.125 -166.71875 Z M 95.578125 -26.984375 C 105.742188 -26.984375 114.632812 -29.472656 122.25 -34.453125 C 129.875 -39.429688 135.800781 -46.207031 140.03125 -54.78125 C 144.269531 -63.351562 146.390625 -73.035156 146.390625 -83.828125 C 146.390625 -94.410156 144.269531 -103.9375 140.03125 -112.40625 C 135.800781 -120.875 129.875 -127.59375 122.25 -132.5625 C 114.632812 -137.539062 105.742188 -140.03125 95.578125 -140.03125 C 85.835938 -140.03125 77.15625 -137.597656 69.53125 -132.734375 C 61.914062 -127.867188 55.988281 -121.203125 51.75 -112.734375 C 47.519531 -104.265625 45.40625 -94.628906 45.40625 -83.828125 C 45.40625 -73.035156 47.519531 -63.351562 51.75 -54.78125 C 55.988281 -46.207031 61.914062 -39.429688 69.53125 -34.453125 C 77.15625 -29.472656 85.835938 -26.984375 95.578125 -26.984375 Z M 95.578125 -26.984375 "/></g></g></g><g fill="#577f49" fill-opacity="1"><g transform="translate(457.549114, 317.771508)"><g><path d="M 44.765625 -202.921875 C 37.359375 -202.921875 31.851562 -204.828125 28.25 -208.640625 C 24.65625 -212.453125 22.859375 -217.425781 22.859375 -223.5625 C 22.859375 -228.851562 24.65625 -233.613281 28.25 -237.84375 C 31.851562 -242.082031 37.359375 -244.203125 44.765625 -244.203125 C 52.179688 -244.203125 57.6875 -242.296875 61.28125 -238.484375 C 64.882812 -234.671875 66.6875 -229.695312 66.6875 -223.5625 C 66.6875 -218.269531 64.882812 -213.503906 61.28125 -209.265625 C 57.6875 -205.035156 52.179688 -202.921875 44.765625 -202.921875 Z M 61.609375 0 L 28.890625 0 L 28.890625 -166.71875 L 61.609375 -166.71875 Z M 61.609375 0 "/></g></g></g><g fill="#577f49" fill-opacity="1"><g transform="translate(527.409783, 317.771508)"><g><path d="M 110.1875 -170.203125 C 125.21875 -170.203125 136.859375 -167.128906 145.109375 -160.984375 C 153.367188 -154.847656 159.140625 -146.59375 162.421875 -136.21875 C 165.703125 -125.851562 167.34375 -114.316406 167.34375 -101.609375 L 167.34375 0 L 134.640625 0 L 134.640625 -99.390625 C 134.640625 -107.429688 133.578125 -114.628906 131.453125 -120.984375 C 129.335938 -127.335938 125.738281 -132.3125 120.65625 -135.90625 C 115.582031 -139.507812 108.492188 -140.992188 99.390625 -140.359375 C 90.921875 -140.359375 83.40625 -138.554688 76.84375 -134.953125 C 70.28125 -131.359375 65.09375 -126.597656 61.28125 -120.671875 C 57.476562 -114.742188 55.578125 -108.179688 55.578125 -100.984375 L 55.578125 0 L 22.859375 0 L 22.859375 -166.71875 L 55.578125 -166.71875 L 55.578125 -140.359375 C 60.648438 -148.191406 68.054688 -155.125 77.796875 -161.15625 C 87.535156 -167.1875 98.332031 -170.203125 110.1875 -170.203125 Z M 110.1875 -170.203125 "/></g></g></g><g fill="#577f49" fill-opacity="1"><g transform="translate(697.933489, 317.771508)"><g><path d="M 44.765625 -202.921875 C 37.359375 -202.921875 31.851562 -204.828125 28.25 -208.640625 C 24.65625 -212.453125 22.859375 -217.425781 22.859375 -223.5625 C 22.859375 -228.851562 24.65625 -233.613281 28.25 -237.84375 C 31.851562 -242.082031 37.359375 -244.203125 44.765625 -244.203125 C 52.179688 -244.203125 57.6875 -242.296875 61.28125 -238.484375 C 64.882812 -234.671875 66.6875 -229.695312 66.6875 -223.5625 C 66.6875 -218.269531 64.882812 -213.503906 61.28125 -209.265625 C 57.6875 -205.035156 52.179688 -202.921875 44.765625 -202.921875 Z M 61.609375 0 L 28.890625 0 L 28.890625 -166.71875 L 61.609375 -166.71875 Z M 61.609375 0 "/></g></g></g><g fill="#577f49" fill-opacity="1"><g transform="translate(767.794158, 317.771508)"><g><path d="M 43.828125 -83.515625 C 43.828125 -72.503906 46.3125 -62.710938 51.28125 -54.140625 C 56.257812 -45.566406 62.820312 -38.789062 70.96875 -33.8125 C 79.125 -28.84375 87.859375 -26.359375 97.171875 -26.359375 C 107.753906 -26.359375 116.960938 -29.109375 124.796875 -34.609375 C 132.628906 -40.117188 138.976562 -45.835938 143.84375 -51.765625 L 161.953125 -29.53125 C 157.929688 -23.8125 152.425781 -18.460938 145.4375 -13.484375 C 138.445312 -8.515625 130.503906 -4.492188 121.609375 -1.421875 C 112.722656 1.640625 103.410156 3.171875 93.671875 3.171875 C 78.429688 3.171875 64.671875 -0.632812 52.390625 -8.25 C 40.117188 -15.875 30.4375 -26.25 23.34375 -39.375 C 16.25 -52.5 12.703125 -67.210938 12.703125 -83.515625 C 12.703125 -100.023438 16.25 -114.789062 23.34375 -127.8125 C 30.4375 -140.832031 40.117188 -151.148438 52.390625 -158.765625 C 64.671875 -166.390625 78.429688 -170.203125 93.671875 -170.203125 C 109.128906 -170.203125 122.890625 -167.078125 134.953125 -160.828125 C 147.023438 -154.585938 156.023438 -146.492188 161.953125 -136.546875 L 143.84375 -114.3125 C 138.976562 -121.507812 132.046875 -127.703125 123.046875 -132.890625 C 114.046875 -138.078125 105.316406 -140.671875 96.859375 -140.671875 C 86.898438 -140.671875 77.898438 -138.179688 69.859375 -133.203125 C 61.816406 -128.234375 55.46875 -121.460938 50.8125 -112.890625 C 46.15625 -104.316406 43.828125 -94.523438 43.828125 -83.515625 Z M 43.828125 -83.515625 "/></g></g></g><g fill="#577f49" fill-opacity="1"><g transform="translate(919.264942, 317.771508)"><g><path d="M 110.1875 -170.203125 C 125.21875 -170.203125 136.859375 -167.128906 145.109375 -160.984375 C 153.367188 -154.847656 159.140625 -146.59375 162.421875 -136.21875 C 165.703125 -125.851562 167.34375 -114.316406 167.34375 -101.609375 L 167.34375 0 L 134.640625 0 L 134.640625 -99.390625 C 134.640625 -107.429688 133.578125 -114.628906 131.453125 -120.984375 C 129.335938 -127.335938 125.738281 -132.3125 120.65625 -135.90625 C 115.582031 -139.507812 108.492188 -140.992188 99.390625 -140.359375 C 90.921875 -140.359375 83.40625 -138.554688 76.84375 -134.953125 C 70.28125 -131.359375 65.09375 -126.597656 61.28125 -120.671875 C 57.476562 -114.742188 55.578125 -108.179688 55.578125 -100.984375 L 55.578125 0 L 22.859375 0 L 22.859375 -234.984375 L 55.578125 -234.984375 L 55.578125 -140.359375 C 60.648438 -148.191406 68.054688 -155.125 77.796875 -161.15625 C 87.535156 -167.1875 98.332031 -170.203125 110.1875 -170.203125 Z M 110.1875 -170.203125 "/></g></g></g><g fill="#577f49" fill-opacity="1"><g transform="translate(1089.78871, 317.771508)"><g><path d="M 44.765625 -202.921875 C 37.359375 -202.921875 31.851562 -204.828125 28.25 -208.640625 C 24.65625 -212.453125 22.859375 -217.425781 22.859375 -223.5625 C 22.859375 -228.851562 24.65625 -233.613281 28.25 -237.84375 C 31.851562 -242.082031 37.359375 -244.203125 44.765625 -244.203125 C 52.179688 -244.203125 57.6875 -242.296875 61.28125 -238.484375 C 64.882812 -234.671875 66.6875 -229.695312 66.6875 -223.5625 C 66.6875 -218.269531 64.882812 -213.503906 61.28125 -209.265625 C 57.6875 -205.035156 52.179688 -202.921875 44.765625 -202.921875 Z M 61.609375 0 L 28.890625 0 L 28.890625 -166.71875 L 61.609375 -166.71875 Z M 61.609375 0 "/></g></g></g></g></g><g transform="matrix(1, 0, 0, 1, 0, 422)"><g clip-path="url(#58aff1c6aa)"><g fill="#577f49" fill-opacity="1"><g transform="translate(0.00003335, 279.480429)"><g><path d="M 219.75 11.75 C 210.21875 21.269531 197.40625 25.820312 181.3125 25.40625 C 181.3125 18.414062 179.410156 13.757812 175.609375 11.4375 C 172.003906 8.257812 162.050781 5.1875 145.75 2.21875 L 145.75 -3.5 C 168.1875 -0.957031 183.113281 0.3125 190.53125 0.3125 C 196.03125 0.3125 200.582031 -1.273438 204.1875 -4.453125 C 208.625 -8.253906 212.644531 -16.71875 216.25 -29.84375 L 71.125 -29.84375 L 66.6875 -13.015625 C 61.394531 -10.054688 53.984375 -10.054688 44.453125 -13.015625 C 51.648438 -38.421875 59.378906 -67.953125 67.640625 -101.609375 L 16.828125 -101.609375 L 14.296875 -111.140625 L 69.859375 -111.140625 C 77.691406 -144.585938 83.515625 -171.050781 87.328125 -190.53125 L 110.5 -180.046875 L 230.859375 -180.046875 L 243.5625 -194.015625 L 267.6875 -172.75 C 264.9375 -170.414062 260.382812 -168.929688 254.03125 -168.296875 C 253.1875 -147.765625 251.921875 -128.710938 250.234375 -111.140625 L 267.0625 -111.140625 L 281.03125 -129.234375 C 284.207031 -126.703125 287.273438 -124.164062 290.234375 -121.625 C 297.222656 -115.695312 302.726562 -110.722656 306.75 -106.703125 C 305.90625 -103.304688 303.257812 -101.609375 298.8125 -101.609375 L 249.28125 -101.609375 C 246.945312 -78.535156 243.875 -57.789062 240.0625 -39.375 L 262.296875 -39.375 L 276.265625 -57.46875 C 284.941406 -50.0625 293.515625 -42.550781 301.984375 -34.9375 C 301.140625 -31.539062 298.390625 -29.84375 293.734375 -29.84375 L 237.84375 -29.84375 C 232.757812 -9.519531 226.726562 4.34375 219.75 11.75 Z M 73.359375 -39.375 L 133.6875 -39.375 C 136.4375 -52.070312 140.457031 -72.816406 145.75 -101.609375 L 88.28125 -101.609375 C 85.945312 -91.242188 82.238281 -75.789062 77.15625 -55.25 C 75.46875 -48.050781 74.203125 -42.757812 73.359375 -39.375 Z M 153.6875 -39.375 L 218.796875 -39.375 C 222.597656 -55.46875 225.769531 -76.210938 228.3125 -101.609375 L 166.078125 -101.609375 C 160.785156 -72.398438 156.65625 -51.65625 153.6875 -39.375 Z M 90.5 -111.140625 L 147.34375 -111.140625 C 149.03125 -120.453125 151.253906 -133.894531 154.015625 -151.46875 C 155.492188 -160.363281 156.550781 -166.820312 157.1875 -170.84375 L 103.84375 -170.84375 C 100.664062 -156.445312 96.21875 -136.546875 90.5 -111.140625 Z M 167.671875 -111.140625 L 229.59375 -111.140625 C 231.488281 -134.003906 232.863281 -153.90625 233.71875 -170.84375 L 177.828125 -170.84375 C 174.015625 -147.976562 170.628906 -128.078125 167.671875 -111.140625 Z M 28.265625 -152.734375 L 24.140625 -156.875 C 37.898438 -169.144531 51.128906 -184.804688 63.828125 -203.859375 C 76.953125 -223.972656 87.644531 -245.039062 95.90625 -267.0625 L 127.96875 -255.3125 C 126.488281 -251.070312 122.46875 -249.269531 115.90625 -249.90625 C 112.726562 -243.5625 108.175781 -235.835938 102.25 -226.734375 L 253.40625 -226.734375 L 268.96875 -246.09375 C 278.488281 -238.476562 288.015625 -230.753906 297.546875 -222.921875 C 296.910156 -219.535156 294.050781 -217.84375 288.96875 -217.84375 L 96.21875 -217.84375 C 77.164062 -190.53125 54.515625 -168.828125 28.265625 -152.734375 Z M 28.265625 -152.734375 "/></g></g></g><g fill="#577f49" fill-opacity="1"><g transform="translate(0.00003335, 616.084147)"><g><path d="M 64.46875 22.234375 L 64.46875 -245.78125 L 87.328125 -234.671875 L 230.21875 -234.671875 L 242.609375 -248.640625 L 268.640625 -227.6875 C 266.316406 -224.925781 261.765625 -222.910156 254.984375 -221.640625 L 254.984375 12.390625 C 254.773438 13.660156 252.660156 15.351562 248.640625 17.46875 C 244.191406 19.582031 240.171875 20.640625 236.578125 20.640625 L 233.390625 20.640625 L 233.390625 -6.03125 L 85.421875 -6.03125 L 85.421875 13.65625 C 85.421875 15.34375 83.726562 17.140625 80.34375 19.046875 C 76.738281 21.171875 72.609375 22.234375 67.953125 22.234375 Z M 85.421875 -15.25 L 233.390625 -15.25 L 233.390625 -117.8125 L 85.421875 -117.8125 Z M 85.421875 -127.015625 L 233.390625 -127.015625 L 233.390625 -225.453125 L 85.421875 -225.453125 Z M 85.421875 -127.015625 "/></g></g></g></g></g></svg>